<svg xmlns="http://www.w3.org/2000/svg" style="display: none;">
  <symbol id="icon-sitzung" viewBox="0 0 24 24">
    <path fill="currentColor" d="M14 6v15H3v-2h2V3h9v1h5v15h2v2h-4V6h-3zm-2 2H5v11h7V8zM7 9h3v2H7V9zm0 3h3v2H7v-2z"/>
  </symbol>
  <symbol id="icon-vorlage" viewBox="0 0 24 24">
    <path fill="currentColor" d="M6 2c-1.1 0-2 .9-2 2v16c0 1.1.9 2 2 2h12c1.1 0 2-.9 2-2V8l-6-6H6zm8 7V4l5 5h-5z"/>
  </symbol>
  <symbol id="icon-person" viewBox="0 0 24 24">
    <path fill="currentColor" d="M12 12c2.21 0 4-1.79 4-4s-1.79-4-4-4-4 1.79-4 4 1.79 4 4 4zm0 2c-2.67 0-8 1.34-8 4v2h16v-2c0-2.66-5.33-4-8-4z"/>
  </symbol>
  <symbol id="icon-gremium" viewBox="0 0 24 24">
    <path fill="currentColor" d="M16 11c1.66 0 2.99-1.34 2.99-3S17.66 5 16 5c-1.66 0-3 1.34-3 3s1.34 3 3 3zm-8 0c1.66 0 2.99-1.34 2.99-3S9.66 5 8 5C6.34 5 5 6.34 5 8s1.34 3 3 3zm0 2c-2.33 0-7 1.17-7 3.5V19h14v-2.5c0-2.33-4.67-3.5-7-3.5zm8 0c-.29 0-.62.02-.97.05 1.16.84 1.97 1.97 1.97 3.45V19h6v-2.5c0-2.33-4.67-3.5-7-3.5z"/>
  </symbol>
  <symbol id="icon-search" viewBox="0 0 24 24">
    <path fill="currentColor" d="M15.5 14h-.79l-.28-.27C15.41 12.59 16 11.11 16 9.5 16 5.91 13.09 3 9.5 3S3 5.91 3 9.5 5.91 16 9.5 16c1.61 0 3.09-.59 4.23-1.57l.27.28v.79l5 4.99L20.49 19l-4.99-5zm-6 0C7.01 14 5 11.99 5 9.5S7.01 5 9.5 5 14 7.01 14 9.5 11.99 14 9.5 14z"/>
  </symbol>
  <symbol id="icon-open-source" viewBox="0 0 24 24">
    <path fill="currentColor" d="M12 2C6.48 2 2 6.48 2 12s4.48 10 10 10 10-4.48 10-10S17.52 2 12 2zm-1 17.93c-3.95-.49-7-3.85-7-7.93 0-.62.08-1.21.21-1.79L9 15v1c0 1.1.9 2 2 2v1.93zm6.9-2.54c-.26-.81-1-1.39-1.9-1.39h-1v-3c0-.55-.45-1-1-1H8v-2h2c.55 0 1-.45 1-1V7h2c1.1 0 2-.9 2-2v-1.79c1.39 1.16 2.46 2.66 2.96 4.29.47 1.56.24 3.2-.66 4.44z"/>
    <path fill="currentColor" d="M7.5 13.5l-3 3-1.5-1.5 3-3 1.5 1.5zm9-9l3 3 1.5-1.5-3-3-1.5 1.5z"/>
  </symbol>
</svg>
